# xmcd
#
# Track frame offsets: 
#        150
#        16193
#        30387
#        50288
#        64346
#        94631
#        110131
#        126360
#        148291
#        167417
#        184425
#        212522
#        231851
#
# Disc length: 3391 seconds
#
# Revision: 0
# Processed by: cddbd v1.5.2PL0 Copyright (c) Steve Scherf et al.
# Submitted via: ExactAudioCopy v0.99pb5
#
DISCID=b60d3d0d
DTITLE=Teenage Beat - Prosze powiedz
DYEAR=2008
DGENRE=Blues
TTITLE0=01.Kiedy wracam od niej w nocy
TTITLE1=02.Temperature
TTITLE2=03.I can tell
TTITLE3=04.Rocker
TTITLE4=05.Na dworcu w Mys³owicach
TTITLE5=06.I had my fun
TTITLE6=07.Ona ma cos w sobie
TTITLE7=08.Boom,boom out go the lights
TTITLE8=09.Bilet do Hollywood
TTITLE9=10.Czujna mama,czujny tata
TTITLE10=11.Po zmroku
TTITLE11=12.Let`s have a ball
TTITLE12=13.Prosze powiedz
EXTD=
EXTT0=
EXTT1=
EXTT2=
EXTT3=
EXTT4=
EXTT5=
EXTT6=
EXTT7=
EXTT8=
EXTT9=
EXTT10=
EXTT11=
EXTT12=
PLAYORDER=
